<?xml version="1.0" encoding="UTF-8"?>
<svg id="Layer_1" data-name="Layer 1" xmlns="http://www.w3.org/2000/svg" width="550" height="550" viewBox="0 0 550 550">
  <g id="Generative_Object" data-name="Generative Object">
    <g>
      <path d="M296.07,17.24c.65.1,1.79.32,2.43.49.18.05,1.06.35,1.46.49.43.14,1.07.33,1.46.49,7.65,3.05,14.99,10.82,17.97,18.45.14.47.47,1.38.49,1.46.14.63.37,1.38.49,1.94.16.76.36,1.7.49,2.43.33,1.9-.24,4.54,0,6.56l.97.24c26.08,2.22,53.7-1.29,79.63.49.84.1,2.02.34,2.91.49.69.11,1.71.33,2.43.49.55.12,1.36.33,1.94.49.61.16,1.38.31,1.94.49.42.13,1.02.33,1.46.49.47.16,1.03.32,1.46.49.55.21,1.08.33,1.46.49,14.29,5.82,26.44,19.29,32.05,33.5.15.47.36,1.03.49,1.46.15.51.41,1.19.49,1.46.16.58.35,1.36.49,1.94s.42,1.58.49,1.94c.14.76.38,1.73.49,2.43.19,1.22.43,3.18.49,4.37-.06.74.16,1.85,0,2.43-.26.91-2.36,2.51-2.91,3.4H92.14c-.42-.12-2.79-2.49-2.91-2.91-.26-.93,0-4.06,0-5.34.09-.8.34-2.06.49-2.91.13-.74.33-1.67.49-2.43.11-.55.34-1.35.49-1.94.04-.16.34-.93.49-1.46.1-.37.34-.99.49-1.46.13-.43.33-1.01.49-1.46,5.85-14.55,17.33-27.08,32.05-33.02.41-.16.92-.28,1.46-.49.43-.16.99-.33,1.46-.49s1.03-.36,1.46-.49c.49-.15,1.22-.42,1.46-.49.58-.15,1.38-.36,1.94-.49.72-.16,1.72-.37,2.43-.49.88-.15,2.08-.39,2.91-.49,25.93-1.78,53.55,1.74,79.63-.49l.97-.24c.13-1.33-.18-2.84,0-4.13.45-1.64.2-2.82.49-3.88.17-.64.31-1.36.49-1.94.23-.74.31-1.44.49-1.94.16-.47.32-1.04.49-1.46,2.82-7.27,10.79-14.55,17.97-17.48.87-.26.92-.47.97-.49.51-.12,1.69-.44,1.94-.49.71-.12,2.1-.45,2.43-.49,12.54-1.29,40.26-1.15,52.93,0Z" fill="#4f666c"/>
      <path d="M292.67,33.74c.6.12,2.08.36,2.43.49,2.51.89,7.42,5.23,8.25,7.77.11.34.47,1.38.49,1.46.27,1.66-.19,3.84,0,5.58l-2.91.73c-20.71,1.99-44.52-1.49-65.55,0l-.49-.49c.09-1.27-.13-2.62,0-3.88.01-.12.44-2.3.49-2.43.94-2.99,5.7-7.85,8.74-8.74.32-.09,2.03-.43,2.43-.49,8.37-1.24,37.34-.95,46.13,0Z" fill="#fff"/>
    </g>
    <path d="M447.08,131.34c.39.52,3.33,2.7,3.4,2.91.33,1.02.33,20.35,0,21.36-.06.17-2.39,1.81-2.67,2.43H91.41c-.98-.58-2.37-1.51-2.67-2.67-.26-1.01-.26-19.87,0-20.88.43-1.68,2.32-2.16,3.4-3.16h354.94Z" fill="#4f666c"/>
    <g>
      <path d="M425.72,167.27c-.2,1.98-.33,3.84-.49,5.83-.08,1.66-.36,3.61-.49,5.34-.14,1.91-.34,3.9-.49,5.83-.15,2.08-.33,4.22-.49,6.31-.15,1.92-.33,3.89-.49,5.83-.15,1.92-.33,3.89-.49,5.83-.15,1.92-.33,3.89-.49,5.83-.15,1.92-.33,3.89-.49,5.83-.16,1.92-.33,3.89-.49,5.83-.15,1.92-.33,3.89-.49,5.83-.15,1.92-.33,3.89-.49,5.83-.15,1.92-.33,3.89-.49,5.83-.17,2.09-.32,4.22-.49,6.31-.15,1.92-.33,3.89-.49,5.83-.17,2.09-.32,4.22-.49,6.31-.15,1.92-.33,3.89-.49,5.83-.15,1.92-.33,3.89-.49,5.83-.17,2.09-.32,4.22-.49,6.31-.17,2.09-.32,4.22-.49,6.31-.15,1.92-.33,3.89-.49,5.83-.17,2.09-.32,4.22-.49,6.31-.15,1.92-.33,3.89-.49,5.83-.15,1.92-.33,3.89-.49,5.83-.17,2.09-.32,4.22-.49,6.31-.14,1.75-.34,3.57-.49,5.34-.17,2.09-.32,4.22-.49,6.31-.15,1.92-.33,3.89-.49,5.83-.15,1.92-.33,3.89-.49,5.83-.15,1.92-.33,3.89-.49,5.83-.17,2.09-.31,4.22-.49,6.31-.16,1.92-.33,3.89-.49,5.83-.16,1.92-.33,3.89-.49,5.83-.16,1.92-.33,3.89-.49,5.83-.17,2.1-.31,4.22-.49,6.31-.17,2.09-.31,4.22-.49,6.31-.16,1.92-.33,3.89-.49,5.83-.17,2.1-.31,4.22-.49,6.31-.16,1.92-.33,3.89-.49,5.83-.16,1.92-.33,3.89-.49,5.83-.17,2.1-.31,4.22-.49,6.31-.16,1.92-.32,3.89-.49,5.83-.17,2.1-.31,4.22-.49,6.31-.16,1.92-.32,3.89-.49,5.83-.18,2.1-.31,4.22-.49,6.31-.16,1.92-.32,3.89-.49,5.83-.18,2.1-.31,4.22-.49,6.31-.16,1.93-.32,3.89-.49,5.83-.18,2.1-.3,4.22-.49,6.31-.17,1.93-.32,3.89-.49,5.83-.19,2.1-.3,4.22-.49,6.31-.17,1.93-.31,3.9-.49,5.83-.19,2.11-.29,4.23-.49,6.31-.19,1.94-.29,3.91-.49,5.83-.22,2.11-.24,4.26-.49,6.31-.21,1.77-.24,3.63-.49,5.34-.15.92-.3,2.03-.49,2.91-.11.53-.33,1.4-.49,1.94-.18.63-.3,1.41-.49,1.94-.15.45-.33,1.06-.49,1.46-3.07,7.66-12.26,17.27-19.91,20.39-.41.17-.96.3-1.46.49-.41.15-1.03.35-1.46.49-.54.17-1.36.34-1.94.49-.55.14-1.51.4-1.94.49-1.12.21-3.07-.54-3.88.49-63.51-2.94-130.63,3.93-193.74,0-1.17-.12-2.73-.29-3.88-.49-.7-.12-1.72-.33-2.43-.49-.56-.13-1.38-.33-1.94-.49-.36-.1-1.02-.34-1.46-.49-.05-.02-.28-.24-.97-.49-8.61-3.89-16.89-12.01-20.39-20.88-.16-.4-.33-1.01-.49-1.46-.18-.53-.32-1.32-.49-1.94-.15-.55-.37-1.41-.49-1.94-.19-.88-.33-2-.49-2.91-.26-1.86-.26-3.89-.49-5.83-.23-1.89-.28-3.89-.49-5.83-.2-1.92-.3-3.89-.49-5.83-.21-2.08-.29-4.2-.49-6.31-.18-1.93-.31-3.89-.49-5.83-.18-1.93-.31-3.89-.49-5.83-.19-2.09-.3-4.21-.49-6.31-.17-1.93-.32-3.9-.49-5.83-.15-1.77-.33-3.59-.49-5.34-.18-2.09-.31-4.21-.49-6.31-.17-1.93-.32-3.9-.49-5.83-.18-2.09-.31-4.21-.49-6.31-.16-1.93-.32-3.9-.49-5.83-.16-1.94-.32-3.9-.49-5.83-.16-1.93-.32-3.9-.49-5.83-.18-2.1-.31-4.22-.49-6.31-.16-1.94-.33-3.9-.49-5.83-.18-2.1-.31-4.22-.49-6.31l-.49-5.83c-.16-1.94-.33-3.9-.49-5.83-.16-1.94-.33-3.9-.49-5.83-.16-1.94-.33-3.9-.49-5.83-.17-2.1-.31-4.22-.49-6.31-.17-2.1-.31-4.22-.49-6.31-.16-1.94-.33-3.9-.49-5.83-.16-1.94-.33-3.9-.49-5.83-.16-1.93-.33-3.91-.49-5.83-.17-2.1-.32-4.22-.49-6.31-.16-1.94-.33-3.91-.49-5.83-.16-1.94-.33-3.91-.49-5.83-.16-1.94-.33-3.91-.49-5.83-.17-2.1-.32-4.22-.49-6.31-.16-1.94-.33-3.91-.49-5.83-.17-2.1-.32-4.22-.49-6.31-.16-1.94-.33-3.91-.49-5.83-.16-1.94-.33-3.91-.49-5.83-.17-2.1-.32-4.22-.49-6.31-.16-1.94-.33-3.91-.49-5.83-.16-1.94-.33-3.91-.49-5.83-.17-2.1-.32-4.22-.49-6.31-.15-1.94-.33-3.91-.49-5.83-.15-1.94-.33-3.91-.49-5.83-.17-2.1-.32-4.22-.49-6.31-.15-1.94-.33-3.91-.49-5.83-.15-1.94-.33-3.91-.49-5.83-.15-1.94-.33-3.91-.49-5.83-.15-1.94-.33-3.91-.49-5.83-.16-2.1-.32-4.23-.49-6.31-.17-2.1-.32-4.22-.49-6.31-.15-1.94-.34-3.91-.49-5.83-.16-2.1-.32-4.22-.49-6.31-.14-1.93-.35-3.93-.49-5.83-.16-2.09-.33-4.23-.49-6.31-.13-1.89-.4-3.99-.49-5.83-.14-1.82-.3-3.53-.49-5.34.09-.63-.26-2.07.24-2.43h312.21c.5.35.15,1.8.24,2.43Z" fill="#4f666c"/>
      <g>
        <path d="M194.59,210.49c.61.09,1.82.32,2.43.49.22.06,1.1.36,1.46.49.46.16,1.06.32,1.46.49,12.26,5.01,24.41,21.18,31.08,32.29,1.7,2.84,4.66,11.31,6.31,13.11,1.37,1.49,1.84.24,1.94.24,1.27-.02,1.61-.31,2.43-.49,1.03-.05,1.83-.47,1.94-.49.82-.11,1.74-.4,2.43-.49.97-.12,2.02-.37,2.91-.49.94-.11,2.09-.41,2.91-.49,1.57-.16,3.31-.36,4.86-.49,7.62-.43,18.15-.49,25.73,0,1.36.1,2.96.35,4.37.49,1.04.11,2.3.35,3.4.49.66.08,1.66.36,2.43.49s1.58.36,2.43.49c.73.11,1.58.38,2.43.49.1.01.84.47,1.94.49.1,0,.78,1.18,1.94.24,7.04-16.61,21.55-40,39.33-46.37.63-.16,1.38-.47,1.46-.49.57-.1,2.3-.48,2.43-.49,1.35-.09,3.57-.16,4.86,0,.1.01,1.58.39,1.94.49.25.07,1.17.38,1.46.49,4.2,1.6,9.47,8.03,11.17,12.14.16.39.32.99.49,1.46.18.5.32,1.34.49,1.94.15.55.38,1.42.49,1.94.2.98.35,2.39.49,3.4.3,3.99.29,10.09,0,14.08-.08,1.14-.34,2.69-.49,3.88-.09.85-.36,1.97-.49,2.91-.09.67-.36,1.66-.49,2.43-.12.73-.34,1.66-.49,2.43s-.32,1.66-.49,2.43c-.13.58-.34,1.32-.49,1.94-.03.13-.33.83-.49,1.46-.15.62-.32,1.32-.49,1.94-.06.24-.33.88-.49,1.46-.19.67-.31,1.33-.49,1.94-.12.42-.34.97-.49,1.46-.13.43-.34.98-.49,1.46-.14.45-.33.98-.49,1.46s-.33.99-.49,1.46-.32.99-.49,1.46c-.17.49-.32,1-.49,1.46-.02.05-.26.37-.49.97-.26.65-.35,1.13-.49,1.46-.61,1.56-1.29,3.31-1.94,4.86-3.09,6.29-3.95,9.49-9.95,13.6-1.81,1.24-4.26,1.37-6.07,2.91-.4.19-1.42-.33-1.94.73s.48,1.61.49,1.7c.02,1.08.48,2.3.49,2.43.1,2.91.17,6.34,0,9.23-.1.84-.35,2-.49,2.91-.1.69-.34,1.68-.49,2.43-.07.39-.34,1.3-.49,1.94-.02.07-.34.87-.49,1.46-.15.6-.32,1.34-.49,1.94-.07.27-.33.92-.49,1.46-.12.41-.34.99-.49,1.46s-.33.98-.49,1.46c-.02.05-.24.22-.49.97-.15.46-.33.98-.49,1.46s-.33.97-.49,1.46c-.19.6-.64,1.41-.97,2.43-.2.59-.64,1.43-.97,2.43-.21.61-.64,1.48-.97,2.43-.21.62-.63,1.41-.97,2.43-.16.49-.32.95-.49,1.46-.02.05-.23.16-.49.97-.15.47-.34.92-.49,1.46-.08.29-.32.82-.49,1.46-.18.68-.34,1.22-.49,1.94-.09.47-.36,1.03-.49,1.94-.17,1.19-.44,2.11-.49,3.4-.02.63-.02.84,0,1.46.06,1.06.39,2.01.49,2.91.04,1.15.48,1.84.49,1.94.02,1.07.48,2.3.49,2.43.07,3.06.21,6.7,0,9.71-.11.81-.31,2.11-.49,2.91-.12.54-.33,1.4-.49,1.94-.11.39-.34,1.05-.49,1.46-.16.46-.33,1.08-.49,1.46-1.97,4.6-7.84,11.8-12.62,13.6-.26.1-1.3.45-1.46.49-.41.1-1.83.47-1.94.49-2.75.4-7.7.08-10.68,0-.1,0-.84-.43-1.94-.49-.1,0-.71-.5-1.94-.49-3.48.03-5.4,3.11-8.74,4.37-.44.17-.98.32-1.46.49-.4.14-1.1.38-1.46.49-.65.19-1.7.34-2.43.49-.96.19-2.41.37-3.4.49-4.42.32-11.11.31-15.54,0-1.15-.14-2.81-.26-3.88-.49-.53-.11-1.4-.33-1.94-.49-.35-.1-1.07-.35-1.46-.49-.48-.17-1.04-.32-1.46-.49-3.5-1.39-5.07-4.29-8.74-4.37-1.26-.03-1.84.48-1.94.49-.99.05-2.3.48-2.43.49-2.83.07-7.6.39-10.2,0-.14-.02-1.52-.38-1.94-.49-.15-.04-1.2-.39-1.46-.49-5.27-1.98-10.53-9.06-12.62-14.08-.15-.43-.37-1.06-.49-1.46-.15-.51-.45-1.29-.49-1.46-.13-.53-.43-1.62-.49-1.94-.2-1.12-.37-2.74-.49-3.88-.12-2.13-.1-4.66,0-6.8.04-.95.44-2.26.49-3.4,0-.12.43-1.46.49-2.43.15-3,.35-4.69,0-7.77-.1-.91-.35-1.63-.49-2.43-.15-.8-.45-1.32-.49-1.46-.17-.7-.4-1.15-.49-1.46-.15-.52-.36-1.02-.49-1.46-.16-.53-.33-.97-.49-1.46s-.32-.96-.49-1.46c-.25-.81-.47-.92-.49-.97-.47-1.44-1.07-2.72-1.46-3.88-.48-1.4-1.18-2.55-1.46-3.4-.34-1.05-.76-1.8-.97-2.43-.16-.48-.33-.99-.49-1.46s-.33-.99-.49-1.46c-.25-.79-.47-.92-.49-.97-.18-.6-.29-1.27-.49-1.94-.16-.52-.41-1.18-.49-1.46-.16-.58-.42-1.22-.49-1.46-.15-.58-.36-1.38-.49-1.94-.16-.73-.47-1.38-.49-1.46-.15-.75-.37-1.72-.49-2.43-.16-1-.4-2.44-.49-3.4-.17-2.57-.07-5.65,0-8.25.02-.41.65-1.57.49-2.91.01-.11,1.05-1.41.49-2.19-.4-.55-1.52-.04-1.94-.24-1.34-1.02-1.84-.67-2.43-.97-8.55-4.83-9.58-7.26-13.6-16.02-.47-1.05-1.01-2.33-1.46-3.4-.31-.74-.68-1.68-.97-2.43-.17-.45-.29-.94-.49-1.46-.17-.45-.31-.96-.49-1.46-.16-.46-.32-.97-.49-1.46s-.33-.99-.49-1.46-.34-1-.49-1.46-.35-1.02-.49-1.46c-.15-.48-.37-1.04-.49-1.46-.16-.55-.41-1.18-.49-1.46-.17-.62-.32-1.3-.49-1.94s-.33-1.32-.49-1.94-.35-1.34-.49-1.94c-.15-.63-.36-1.36-.49-1.94-.14-.63-.38-1.39-.49-1.94-.16-.78-.35-1.67-.49-2.43-.17-.93-.34-1.98-.49-2.91-.13-1.08-.39-2.39-.49-3.4-.17-1.33-.4-3.07-.49-4.37-.13-3-.19-6.73,0-9.71.13-1.32.27-3.08.49-4.37.12-.71.33-1.7.49-2.43.12-.55.33-1.37.49-1.94.07-.26.33-.93.49-1.46,1.76-4.48,6.56-11.29,11.17-13.11.26-.1,1.2-.41,1.46-.49.36-.1,2.06-.43,2.43-.49,1.29-.18,3.48-.07,4.86,0Z" fill="#fff"/>
        <path d="M236.35,308.57c2.58.53,6.77,4.66,7.28,7.28.14.7.1,2.64,0,3.4-.01.1-.45,1.85-.49,1.94-.5,1.31-4.03,4.84-5.34,5.34-.09.04-1.84.47-1.94.49-.7.1-2.22.11-2.91,0-.1-.02-1.85-.45-1.94-.49-1.33-.54-4.84-4.39-5.34-5.83-.1-.3-.47-1.38-.49-1.46-.11-.68-.1-2.21,0-2.91.01-.1.45-1.85.49-1.94.5-1.32,4.03-4.83,5.34-5.34.23-.09,1.38-.47,1.46-.49.71-.12,3.21-.14,3.88,0Z" fill="#3a4f54"/>
        <path d="M306.27,308.57c2.34.44,6.76,4.45,7.28,6.8.14.64.13,3.69,0,4.37-.42,2.19-3.69,5.98-5.83,6.8-.23.09-1.38.47-1.46.49-.7.12-2.69.12-3.4,0-.13-.02-1.85-.45-1.94-.49-.99-.43-4.96-4.71-5.34-5.83-.04-.12-.48-2.3-.49-2.43-.02-.32-.02-.65,0-.97,0-.12.44-2.28.49-2.43.46-1.43,3.96-5.27,5.34-5.83.09-.04,1.84-.47,1.94-.49.76-.1,2.69-.13,3.4,0Z" fill="#3a4f54"/>
        <path d="M276.16,334.3c.63.09,1.79.33,2.43.49.55.14,1.49.32,1.94.49.51.18,1.3.41,1.46.49,1.6.77,5.4,3.57,5.83,5.34.11.45.03,1.39,0,1.94,0,.1-.4,1.66-.49,1.94-1.73,5.71-7.02,9.1-11.17,12.62-.47.4-.7-.75-1.46.97s-.88,10.67,0,12.14c.54.9.94.25,1.46.49,1.46.67,2.39.25,2.91.49.72.32,1.24.38,1.46.49,6.02,2.91,10.38,9.12,16.99,10.68.56.2.84.33,1.46.49,2.76.71,3.47,0,5.83,0,1.39,0,1.38-.48,1.46-.49.64-.01,2.01-.14,2.43,0,.16.06,2.37,2.27,2.43,2.43.08.24.08,2.68,0,2.91-.07.21-3.07,2.79-3.4,2.91-.25.09-1.38.47-1.46.49-1.36.26-6.76.19-8.25,0-.1-.01-1.4-.37-1.94-.49-.08-.02-1-.35-1.46-.49-.39-.12-1.08-.34-1.46-.49-5.6-2.15-11.09-8.98-16.51-10.2-4.12-.92-10.95-.97-15.05,0-5.02,1.19-10.32,8.08-15.54,10.2-.36.15-1.06.36-1.46.49s-1.38.47-1.46.49c-.53.12-1.84.47-1.94.49-1.64.21-7.23.27-8.74,0-.08-.01-1.22-.4-1.46-.49-4.1-1.54-4.5-6.92-.97-8.25.36-.14,1.83-.02,2.43,0,.05,0-.24.47.97.49,2.48.03,3.64.47,6.31,0,.88-.16,1.2-.41,1.46-.49.59-.17.89-.27,1.46-.49,6.02-2.27,9.78-7.69,15.54-10.2.27-.12.87-.26,1.46-.49.77-.29,1.76.24,3.4-.49.33-.15,1.25.26,1.46-.24.24-.59.23-12.04,0-12.62-.4-1.01-1.61-.56-1.94-.73-3.28-3.69-9.32-6.44-11.17-12.62-.07-.24-.48-2.3-.49-2.43,0-.31-.05-.67,0-.97.48-2.84,4.01-4.71,6.31-5.83.33-.11,1.33-.45,1.46-.49.64-.16,1.38-.47,1.46-.49.85-.15,2.12-.4,2.91-.49,3.28-.34,9.79-.3,13.11,0Z" fill="#3a4f54"/>
        <path d="M286.85,393.54v.49c-1.1-.18-2.22,1.17-2.91,1.46-.38.15-1.02.34-1.46.49-.4.13-1.23.43-1.46.49-.74.19-2.11.36-2.91.49-4.58.37-12.43.39-16.99,0-.8-.1-2.14-.31-2.91-.49-.55-.13-1.42-.33-1.94-.49-.41-.13-1.06-.34-1.46-.49-.36-.22-2.44-1.55-2.43-1.7,2.97-.55,8.97-7.05,10.93-7.53.78-.19,11.41-.19,12.14,0,1.95.51,8.01,7.58,11.41,7.28Z" fill="#3a4f54"/>
      </g>
    </g>
  </g>
</svg>