<?xml version="1.0" encoding="UTF-8"?>
<svg id="Layer_2" data-name="Layer 2" xmlns="http://www.w3.org/2000/svg" width="979.99" height="654.96" viewBox="0 0 979.99 654.96">
  <defs>
    <style>
      .cls-1 {
        fill: #000;
      }

      .cls-1, .cls-2 {
        stroke-width: 0px;
      }

      .cls-2 {
        fill: #fff;
      }
    </style>
  </defs>
  <g id="Layer_1-2" data-name="Layer 1">
    <g id="bFaXXK.tif">
      <g>
        <path class="cls-1" d="M136.87,129.45c-12.36,15.95-33.27-3.68-12.72-13.07-6.35-4.94-15.65-10.43-8.68-18.67,5.85-5.81,13.13.7,20.04,4.58,1.24-8.16-5.38-17.22,2.47-21.18,16.43-8.21,9.11,20.15,20.41,12.4,6.14-8.16,10.55-6.1,16.69-.33,6.45,6.77-4.35,12.74-8,18.06,22.65,2.38,13.58,32.64-5.3,18.61-32.39,22.62,144.42,57.73,163.09,79.27,104.01,70.85,117.57,58.08,217.98-5.36,29.38-30.37,87.58-28.47,104.52-68.32C706.11-76.52,818.27.06,949.82,97.51c29.64,20.55,37.86,54.29,22.81,86.04-26.28,19.93-56.61,8.23-81.14,6.33-87.81-18.22-133.98-72.95-131.32,56.86-12.4,55.22,46.85,45.04,78.16,65.49,22.21,49.74,16.85,171.74-65.13,131.12,18.05-28.53-19.8-8.13-16.33-32.49,9.38-10.08,28.86-7.64,34.61-21.03,6.36-22.6-32.63-12.1-45.18-19.6-35.49-18.68-65.27,5.79-101.62,10.15-47.26,5.67-19.93,75.49-26.66,108.35-1.22,31.52-71.62,29.73-66.33,49.38,24.48,25.19,86.02,42.38,82.97,79.95-3.68,6.89-12.97-6.53-9.42,4.43-6.21,66.59-37.47-12.45-32,14.32-25.2,60.74-87.68-49.29-110.37-61.77-11.98,16.19-38.41-7.52-42.26-1.85-3.43,45.93-72.62-20.16-64.17-52.4,2.74-23.76-12.95-65.36,7.2-81.31,23.56-.96,62.9,7.61,66.13-25.17-18.51-3.92-40.54-.16-58.96-9.76-109.1-68.97-190.39-185.67-310.25-240.98-17.39-9.75-92.19-1.8-79.02-26.97,44.5-24.79,144.16,16.88,135.32-7.14ZM378.41,487.4c8.21,35.26,5.51,79.2,48.26,91.71,13.92,5.4.43-13.97,9.98-17.12,12.53-5.22,25.66,23.14,39.8,7.13,2.31-2.63,4.74-7.52,9.13-4.56,34.55,27.76,46.89,77.63,98.03,83.97,3.76-12.25-13.46-43,11.48-32.62,7.16,4.91,13.01,31.75,20.99,23.56,3.74-27.24,8.38-45.55-20.27-61.16-92.71-59.01-55.43-38.39,9.07-80.58,20.87-28.98-4.8-72.84,9-106.18,16.6-28.44,63.78-20.99,91.89-36.04,20.69,1.6,86.81,8.29,94.87,25.97.69,19.81-25.04,25.99-36.37,32.84,60.68,17.13,2.96,20.66,23.48,27.65,71.13,12.98,61.5-82.67,40.75-123.56-19.71-19.33-58.82-8.02-71.6-35.65-14.34-193.75,33.04-115.5,165.04-96.15,28.41,4.34,54.53-3.6,48.91-37.59-3.23-50.63-97.68-83.75-132.48-119.31-35.27-7.43-83.69-41.28-114.98-14.03-44.12,36.75-61.4,88.26-77.81,140.82-50.18,26.79-104.46,53.08-151.88,85.67-59.57,64.4-127.12-9.44-185.37-33.46-47.38-29.3-119.23-26.71-156.5-67-1.16-14.35,2.53-23.89,17.36-13.79,4.36,1.5,4.83-2.22,5.73-4.94,2.59-9.32-23.57-3.44-12.47-15.48,9.23-3.65,11.51-20.55-.03-11.13-12.79,14.88-13.36-8.04-21.48-12.51-5.12,6.29,5.42,26.38-10.04,20.36-3.87-3.02-15.4-5.46-11.56,2.89,3.81,2.75,9.99,4.79,11.77,9.53-7.36,7.52-16.55,20.31,1.81,8.09,10.22-5.43,11.77,6.71,9.82,13.94-7.59,23.34-54.12-12.19-77.17-4.1-18.17-.67-37,.34-54.36,5.89,37.5,10.82,80.34,10.17,110.29,37.74,67.78,43.79,133.48,89.05,186.79,150.65,59.12,53.02,69.82,68.09,148.37,79.86,13.54,24.27-27.73,46.99-48.78,38.83-41.31-13.8-22.72,15.91-29.45,39.87Z"/>
        <path class="cls-1" d="M159.05,59.7c-13.48,17.82-32.68-4.38-13.46-15.04-2.61-4.92-16.28.33-15.78-8.38-1.63-18.02,14.88-6.11,14.22-15.59-5.16-14.52,12.8-19.72,16.32-7.02.63,4.74,1.86,8.52,5.73,2.96,12.43-16.1,27.11,3.49,13.41,15.35,9.32,1.25,21.21,1.9,17.57,14.37-4.19,7.51-13.51,3.98-21.45,4.63,14.11,18.87-11.69,32.8-16.56,8.72ZM168.15,68.38c10.41-2.25,5.39-7.5,3.2-13.91-10.74-16.13,38.73-1.24,16.71-16.71-27.36,6.16,5.66-29.11-15.11-20.33-2.27,3.68-5.76,9.73-10.5,9.36-6.79-2.46-3.68-14.93-12.32-14.53-6.88,5,8.75,21.9-6.62,19.2-4.79-1.57-12.22.33-5.86,4.85,16.6.26,12.5,11.06,3.33,19.55,13.39,17,20.33-25.01,27.17,12.52Z"/>
        <path class="cls-1" d="M205.4,111.29c-15.37,13.35-30.88-12.1-8.65-14.92-4.88-6.45-14.01-12.25-4.33-19.98,6.85-5.47,10.96,2.38,16.43,6.52,1.3-8.25,1.72-17.69,12.66-16.47,12.48-2.43,2.7,21.18,13.79,15.39,18.13-11.08,21.41,14.65,4.02,19.56,7,4.2,16.35,9.5,8.05,18.69-4.89,12.05-13.24.46-20.24-4.01-4.98,25.86-27.68,14.84-21.74-4.78ZM246.56,110.74c-34.25-6.22,19.09-29.08-8.17-25.32-13.09,9.44-13.37-4.85-12.48-14.6-16.92-6.95-2.92,24.82-20.19,15.14-3.68-2.13-6.78-7.56-11.43-3.9.77,12.53,20.87,15.86-3.73,23.32,4.87,12.4,26.63-13.77,18.56,14.64-.81,4.22,1.8,4.87,5.1,5.47,8.02,1.66,4.81-12.58,10.1-14.72,10.13.8,16.16,16.12,22.24-.03Z"/>
        <path class="cls-2" d="M378.41,487.4c6.92-24.32-12.17-53.38,29.45-39.86,20.97,8.28,62.38-14.65,48.78-38.82-78.19-11.68-89.63-27.05-148.36-79.89-53.29-61.58-119.02-106.85-186.8-150.63-18.15-28.4-110.63-27.85-101.26-40.53,50.94-19.26,131,31.77,123.23-7.4-2.19-18.33-17.96,7.05-22.86-3.55,2.73-2.86,10.03-5.98,10.49-10.08-2.11-6.22-21.35-11.26-7.91-15.75,14.38,9.07,19.1,1.44,16.11-13.01.76-3.64,2.85-4.75,5.46-1.46,6.05,33.67,24.99-6.35,25.68,12.97-31.35,23.17,23.2,14.96-1.25,28.53-13.87-9.63-19.5-1.02-17.35,13.79,37.24,40.29,109.14,37.72,156.48,67.02,58.18,23.99,125.86,97.83,185.38,33.42,47.42-32.57,101.71-58.87,151.88-85.65,16.37-52.5,33.77-104.16,77.83-140.82,31.46-27.44,79.51,6.77,114.97,14.01,35.23,35.67,128.79,68.56,132.51,119.31,4.32,35.82-18.74,40.93-48.93,37.59-132.88-19.62-179.08-97.39-165.04,96.16,12.8,27.62,51.89,16.32,71.6,35.65,20.79,40.87,30.39,136.57-40.74,123.55-20.68-6.83,37.37-10.4-23.49-27.64,11.33-6.84,37.14-13.03,36.37-32.84-7.5-17.53-74.99-24.57-94.86-25.98-28.05,15.09-75.37,7.55-91.91,36.03-13.78,33.37,11.87,77.18-8.98,106.18-65.41,42.14-100.81,22.24-9.07,80.59,28.58,15.4,24.05,34.07,20.26,61.15-12.26,9.47-14.77-38.96-34.17-22.89-5.78,9.48,6.62,19.76,1.69,31.96-51.17-6.49-63.44-56.13-98.02-83.98-4.4-2.95-6.83,1.94-9.14,4.58-14.16,15.97-27.21-12.47-39.8-7.14-9.57,3.22,3.93,22.51-9.99,17.13-42.7-12.68-40.08-56.33-48.25-91.71ZM519.56,448.34c-11.78-52.5-81.46,44.36-51.33,50.91,23.78-5.55,50.8-24.3,51.33-50.91ZM799.62,62.34c-32.46-.11-21.17,45.48,4.13,42.9,35.59-5.45,27.42-39.47-4.13-42.9ZM807.06,351.24c34.76-1.6-12.91-42.25-19.79-13.88,1.35,8.46,13.69,10.91,19.79,13.88Z"/>
        <path class="cls-2" d="M168.15,68.38c-6.9-37.65-13.71,4.55-27.17-12.51,9.23-8.52,13.21-19.27-3.34-19.55-6.31-4.52,1.03-6.42,5.87-4.85,15.37,2.69-.27-14.19,6.61-19.2,8.64-.4,5.53,12.06,12.32,14.53,4.74.36,8.21-5.67,10.5-9.36,20.76-8.8-12.23,26.49,15.11,20.32,22.02,15.49-27.44.56-16.7,16.71,2.18,6.4,7.21,11.68-3.2,13.91Z"/>
        <path class="cls-2" d="M246.56,110.74c-6.11,16.13-12.08.85-22.24.02-5.29,2.15-2.07,16.38-10.09,14.73-3.3-.6-5.92-1.25-5.1-5.47,8.04-28.46-13.62-2.2-18.56-14.63,24.7-7.48,4.42-10.8,3.72-23.32,6.72-4.73,11.18,7.61,18.24,5.81,8.07-5.72-1.77-21.72,13.38-17.05-.92,9.79-.58,23.99,12.48,14.6,27.26-3.79-26.07,19.12,8.17,25.32Z"/>
        <path class="cls-1" d="M519.56,448.34c-.53,26.61-27.56,45.36-51.32,50.91-30.16-6.49,39.56-103.44,51.32-50.91ZM513.77,454.16c-12.33-34.74-40.56,18.55-42.55,35.33,16.88-7.71,32.78-18.96,42.55-35.33Z"/>
        <path class="cls-1" d="M799.62,62.34c31.56,3.45,39.71,37.45,4.12,42.9-25.29,2.58-36.59-43.01-4.12-42.9ZM788.7,73.41c-13.25,27.79,30.19,32.02,33.15,7.24-5.67-13.86-21.65-14.05-33.15-7.24Z"/>
        <path class="cls-1" d="M807.06,351.24c-6.09-2.97-18.45-5.42-19.79-13.88,6.9-28.37,54.55,12.29,19.79,13.88ZM796.97,335.58c3.11,7.32,11.31,5.74,15.8,10.41.14-5.95-6.84-10.49-15.8-10.41Z"/>
      </g>
    </g>
  </g>
</svg>